<svg xmlns="http://www.w3.org/2000/svg" fill="none" viewBox="0 0 128 128"><defs><linearGradient id="helmet-sport-grad" x1="0%" x2="100%" y1="100%" y2="0%"><stop offset="0%" style="stop-color:#ef4444"/><stop offset="50%" style="stop-color:#f97316"/><stop offset="100%" style="stop-color:#eab308"/></linearGradient></defs><path fill="url(#helmet-sport-grad)" stroke="#1e293b" stroke-width="2" d="M64 16c-22 0-42 14-50 34-2 5-3 11-3 16v32c0 5 3 9 7 11l46 24c4 2 8 2 12 0l46-24c4-2 7-6 7-11V66c0-5-1-11-3-16-8-20-28-34-50-34z"/><path fill="#1e293b" d="M64 28c16 0 30 8 38 20H26c8-12 22-20 38-20z"/><path fill="#0f172a" d="M44 52h40v6H44z"/><circle cx="64" cy="72" r="6" fill="#fbbf24"/><path fill="none" stroke="#1e293b" stroke-width="2" d="M58 78v12h12V78"/></svg>